<svg width="29" height="29" xmlns="http://www.w3.org/2000/svg" xmlns:xlink="http://www.w3.org/1999/xlink" x="0px" y="0px" viewBox="0 0 2174 2500" style="enable-background:new 0 0 2174 2500;" xml:space="preserve">
    <g>  
        <path fill="#ffffff" d="M557.2,2100.8c-59.4-96.6-117.5-189.1-173.4-283c-15-25.2-23.5-33.2-50-10c-60.8,53.2-125.1,102.4-188.5,152.7  c-13.2,10.5-24.3,24.8-42,29c-1.2-2.8-3.3-5.6-2.7-6.8c130.9-257.1,181.9-531.8,182.2-818.1c0.1-112-1.4-224.3,4.2-336.1  c5.9-116.7,44.7-224.8,104-329.6c40.4,52.3,77.3,102,121,145.9c18.3,18.4,0.5,32.5-6,46.5c-61.7,133.1-23.7,264.1,98.1,335.8  c44.9,26.4,93.6,40.6,145.2,42c24.6,0.7,34.7,6.1,24.8,31.3c-1.3,3.4-1.9,7.5-1.3,11.1c11.5,63.7-23.2,94.7-76.3,120.4  c-62.3,30.2-120.5,68.5-185.7,106.3c45.3,25.6,85.1,53.3,128.9,71.9c127.2,54,198,156.8,251.5,276.9  c69.9,157,116,321.9,164.2,486.1c9.7,33,19.8,65.8,32.3,107c48.5-156.9,86.9-306.9,139.8-452.4c31-85.2,65.7-168.8,112.5-246.8  c37.3-62.1,85-112.2,150.7-145.5c57.3-29.1,112.6-62.4,174.3-96.9c-70.4-40.7-135.3-80.5-202.4-116.2c-37.5-19.9-61.3-40-59.9-89.1  c1.6-56.6-4.1-56.7,51-65.9c132.2-22,218.9-96.9,241.4-210.7c12-61-2.3-118.7-30.4-173c-9.8-19-9.6-32,6.8-48  c41.8-40.8,75.5-88.9,113.4-136.8c69.2,123.6,106.4,253.1,108.1,392.5c1.8,148.1-4.4,296.3,6.4,444.4  c15.8,216.7,68.6,423.4,161.4,619.9c5,10.6,13.9,20,12.6,39.4c-62-49.8-120.3-97.2-179.3-143.6c-26.9-21.1-53.5-62.5-81-56.8  c-22.9,4.7-37.4,51.4-55.1,79.8c-42,67.5-84.3,134.9-125,203.2c-11.2,18.8-18,21.2-34.6,5c-51.7-50.4-105.9-98.2-157.2-148.9  c-20.8-20.6-30.4-22-47,5.4c-95.8,158.4-193.7,315.6-290.9,473.2c-4.4,7.2-9,14.3-15.7,25c-42.6-69-83.5-135.4-124.5-201.8  c-61.9-100.5-124.2-200.7-185.3-301.7c-12.5-20.6-20.6-23.2-39-5.1C680.2,1986.3,619.7,2041.9,557.2,2100.8z"></path>
        <path fill="#ffffff" d="M1838.2,211.5c0.6,27.6-13.3,48-25.5,68.8C1711.9,450.9,1568,579.7,1409.5,694  c-50.4,36.3-103.7,68.3-158.8,97.3c-18,9.5-31.2,10.6-50.3-1c-74.3-45.4-151-46.3-225.2,0.1c-19.4,12.1-32.9,10-50.8,0.7  C718.8,685.1,427.1,445.8,324.3,206.8c16.4-9.3,21.3,6.6,28.9,14c31.5,30.6,66,56.1,106.5,74c30.6,13.6,52.9,10.9,78.9-14.1  C681.6,143,855.5,71.6,1052.3,63.5c220.6-9.1,416.6,59.9,578.6,212.4c32.5,30.6,59.4,32.1,94.9,15.1  C1767.6,271.1,1801.7,240.8,1838.2,211.5z"></path>    
        <path fill="#ffffff" d="M1400.9,1336.4c-196.2,114.5-248.2,312.1-312.7,512.5c-66-198.2-116.7-399.1-313.6-512.2  c33.5-19.5,62.5-38.1,93-53.7c24.3-12.4,33.6-30.1,32.5-56.8c-2.8-70,1.8-139.1,28-205.3c18.4-46.6,48.2-84,89.2-112  c48.3-33.1,98-31.5,145.5,3.2c74.1,54.1,102.6,131.5,109.8,219c2.6,32.2,2.2,64.7,1.7,97c-0.4,25.1,9.5,42,31.8,53.9  C1336.7,1298.2,1366.4,1316.4,1400.9,1336.4z"></path>    
        <path fill="#ffffff" d="M1293.3,909.2c91.8-47.3,175.9-99.5,254.5-160.3c53.3,88.1-5,168.8-97.6,186.3  C1397.5,945.2,1346.5,938.3,1293.3,909.2z"></path> 
        <path fill="#ffffff" d="M880.6,908.6c-82.7,44.8-179.9,38.7-235.4-11.4c-41.9-37.8-48.6-82.2-20-149.8  C704.8,808.5,788.8,861.2,880.6,908.6z"></path>
    </g>
</svg>